<?xml version="1.0" ?><svg data-name="Слой 1" id="Слой_1" viewBox="0 0 32 32" xmlns="http://www.w3.org/2000/svg"><path d="M30.1477,21.0255V16.7714a.35.35,0,0,0-.0263-.1318l-1.9556-4.6641A3.0335,3.0335,0,0,0,25.3606,10.11H12.4524V9.6H25.9a.3329.3329,0,0,0,.1709-.0522.3256.3256,0,0,0,.0339-.023.3344.3344,0,0,0,.11-.1367l.0016-.0019.0008-.01a.333.333,0,0,0,.0236-.1167.32.32,0,0,0-.01-.0488.3265.3265,0,0,0-.0086-.0425.3344.3344,0,0,0-.0859-.1526l-.0017-.0032A4.6684,4.6684,0,0,0,22.9,7.7187H12.4524V6.7294a.3413.3413,0,0,0-.6826,0v.9893H10.2864V6.7294a.3413.3413,0,0,0-.6826,0v.9893H6.222A4.6717,4.6717,0,0,0,2.9866,9.0116l-.0017.0032a.3356.3356,0,0,0-.0857.1521.3089.3089,0,0,0-.0087.043.32.32,0,0,0-.01.0488.3357.3357,0,0,0,.0236.1162l.0009.0108.0017.0019a.3348.3348,0,0,0,.11.1367.3282.3282,0,0,0,.0341.023A.3323.3323,0,0,0,3.222,9.6H9.6038V10.11H6.552a4.76,4.76,0,0,0-4.7553,4.7548v6.1778a1.5309,1.5309,0,0,0,.5571,2.958H4.0906A1.5336,1.5336,0,0,0,5.583,22.8085H6.2a3.1259,3.1259,0,0,0,6.2183,0h7.1572a3.1262,3.1262,0,0,0,6.2188,0h.623A1.5338,1.5338,0,0,0,27.91,24.0009h1.7368a1.5292,1.5292,0,0,0,.5014-2.9754ZM12.4524,8.4H22.9a3.9861,3.9861,0,0,1,1.9717.5176H12.4524Zm-2.166,0H11.77v.5176H10.2864Zm0,1.1992H11.77V10.11H10.2864ZM4.25,8.9179A3.9861,3.9861,0,0,1,6.222,8.4H9.6038v.5176Zm-1.771,5.9472A4.0775,4.0775,0,0,1,6.552,10.7919H25.3606a2.3532,2.3532,0,0,1,2.1753,1.4473L29.4651,16.84v.0224H2.4793Zm26.9858,3.2234v1.1761a.6689.6689,0,0,1,0-1.1761ZM4.0906,23.3192H2.3538a.8516.8516,0,0,1,0-1.7031H4.0906a.8516.8516,0,0,1,0,1.7031Zm5.2183,1.61A2.4619,2.4619,0,1,1,11.77,22.4677,2.4643,2.4643,0,0,1,9.3089,24.93Zm13.3755,0a2.4619,2.4619,0,1,1,2.4614-2.4619A2.4643,2.4643,0,0,1,22.6844,24.93Zm3.7326-2.8027h-.623a3.1262,3.1262,0,0,0-6.2188,0H12.418a3.1259,3.1259,0,0,0-6.2183,0H5.583a1.5335,1.5335,0,0,0-1.4924-1.1924H2.4793V17.5439H29.0318a1.368,1.368,0,0,0,.4333,2.458v.9326H27.91A1.5337,1.5337,0,0,0,26.417,22.1269Zm3.2293,1.1923H27.91a.8516.8516,0,0,1,0-1.7031h1.7368a.8516.8516,0,0,1,0,1.7031Z"/><path d="M9.4812,11.5741H6.4973A3.31,3.31,0,0,0,3.19,14.88v.94a.3409.3409,0,0,0,.3413.3408h5.95a.3409.3409,0,0,0,.3413-.3408V11.9149A.3409.3409,0,0,0,9.4812,11.5741ZM9.14,15.4794H3.8728v-.6a2.6276,2.6276,0,0,1,2.6245-2.624H9.14Z"/><path d="M19.6306,11.5741H11.054a.3409.3409,0,0,0-.3413.3408V15.82a.3409.3409,0,0,0,.3413.3408h8.5766a.341.341,0,0,0,.3414-.3408V11.9149A.341.341,0,0,0,19.6306,11.5741Zm-.3413,3.9053h-7.894V12.2558h7.894Z"/><path d="M26.843,12.7567a1.9748,1.9748,0,0,0-1.81-1.1826h-3.83a.3409.3409,0,0,0-.3413.3408v3.9483a.3409.3409,0,0,0,.3413.3408h6.5776a.3412.3412,0,0,0,.3145-.4736Zm-2.1513,2.7657H21.5442V12.2558h3.1475Zm.6826,0V12.3017a1.2888,1.2888,0,0,1,.8418.7246l1.0508,2.4961Z"/><path d="M9.3089,20.9345a1.5332,1.5332,0,1,0,1.5337,1.5332A1.535,1.535,0,0,0,9.3089,20.9345Zm0,2.3847a.8516.8516,0,1,1,.851-.8515A.8521.8521,0,0,1,9.3089,23.3192Z"/><path d="M22.6844,20.9345a1.5332,1.5332,0,1,0,1.5341,1.5332A1.535,1.535,0,0,0,22.6844,20.9345Zm0,2.3847a.8516.8516,0,1,1,.8515-.8515A.8521.8521,0,0,1,22.6844,23.3192Z"/><path d="M23.8772,18.0526H21.2029a.3409.3409,0,1,0,0,.6817h2.6743a.3409.3409,0,1,0,0-.6817Z"/><path d="M19.4759,18.0526H16.8015a.3409.3409,0,1,0,0,.6817h2.6744a.3409.3409,0,1,0,0-.6817Z"/></svg>